<mxfile host="app.diagrams.net" agent="Mozilla/5.0 (Windows NT 10.0; Win64; x64) AppleWebKit/537.36 (KHTML, like Gecko) Chrome/129.0.0.0 Safari/537.36" version="24.7.16">
  <diagram name="Page-1" id="9EGk7QsHteoxDKZqLXzk">
    <mxGraphModel dx="21000" dy="12700" grid="1" gridSize="10" guides="1" tooltips="1" connect="1" arrows="1" fold="1" page="1" pageScale="1" pageWidth="1100" pageHeight="850" math="0" shadow="0">
      <root>
        <mxCell id="0" />
        <mxCell id="1" parent="0" />
        <mxCell id="6WpyNxrPEkwIV4gef8yF-1" value="" style="whiteSpace=wrap;html=1;aspect=fixed;movable=0;resizable=0;rotatable=0;deletable=0;editable=0;locked=1;connectable=0;fillColor=#a0522d;fontColor=#ffffff;strokeColor=#6D1F00;" parent="1" vertex="1">
          <mxGeometry width="20000" height="20000" as="geometry" />
        </mxCell>
        <mxCell id="6WpyNxrPEkwIV4gef8yF-39" value="" style="rounded=1;whiteSpace=wrap;html=1;fillColor=#FFD966;strokeColor=#d79b00;arcSize=3;" parent="1" vertex="1">
          <mxGeometry x="170" y="4750" width="2000" height="1500" as="geometry" />
        </mxCell>
        <mxCell id="6WpyNxrPEkwIV4gef8yF-22" value="" style="shape=manualInput;whiteSpace=wrap;html=1;size=0;rotation=0;" parent="1" vertex="1">
          <mxGeometry x="9110" y="7500" width="2000" height="2000" as="geometry" />
        </mxCell>
        <mxCell id="6WpyNxrPEkwIV4gef8yF-23" value="" style="rounded=0;whiteSpace=wrap;html=1;" parent="1" vertex="1">
          <mxGeometry x="330" y="5250" width="480" height="240" as="geometry" />
        </mxCell>
        <mxCell id="6WpyNxrPEkwIV4gef8yF-24" value="" style="rounded=0;whiteSpace=wrap;html=1;" parent="1" vertex="1">
          <mxGeometry x="330" y="5500" width="480" height="240" as="geometry" />
        </mxCell>
        <mxCell id="6WpyNxrPEkwIV4gef8yF-25" value="" style="rounded=0;whiteSpace=wrap;html=1;" parent="1" vertex="1">
          <mxGeometry x="330" y="5750" width="480" height="240" as="geometry" />
        </mxCell>
        <mxCell id="6WpyNxrPEkwIV4gef8yF-26" value="" style="rounded=0;whiteSpace=wrap;html=1;" parent="1" vertex="1">
          <mxGeometry x="1530" y="5500" width="480" height="240" as="geometry" />
        </mxCell>
        <mxCell id="6WpyNxrPEkwIV4gef8yF-27" value="" style="rounded=0;whiteSpace=wrap;html=1;" parent="1" vertex="1">
          <mxGeometry x="330" y="5000" width="480" height="240" as="geometry" />
        </mxCell>
        <mxCell id="6WpyNxrPEkwIV4gef8yF-28" value="" style="rounded=0;whiteSpace=wrap;html=1;" parent="1" vertex="1">
          <mxGeometry x="1530" y="5750" width="480" height="240" as="geometry" />
        </mxCell>
        <mxCell id="6WpyNxrPEkwIV4gef8yF-29" value="" style="rounded=0;whiteSpace=wrap;html=1;" parent="1" vertex="1">
          <mxGeometry x="930" y="5750" width="480" height="240" as="geometry" />
        </mxCell>
        <mxCell id="6WpyNxrPEkwIV4gef8yF-30" value="" style="rounded=0;whiteSpace=wrap;html=1;" parent="1" vertex="1">
          <mxGeometry x="1530" y="5250" width="480" height="240" as="geometry" />
        </mxCell>
        <mxCell id="6WpyNxrPEkwIV4gef8yF-31" value="" style="rounded=0;whiteSpace=wrap;html=1;" parent="1" vertex="1">
          <mxGeometry x="930" y="5500" width="480" height="240" as="geometry" />
        </mxCell>
        <mxCell id="6WpyNxrPEkwIV4gef8yF-32" value="" style="rounded=0;whiteSpace=wrap;html=1;" parent="1" vertex="1">
          <mxGeometry x="930" y="5250" width="480" height="240" as="geometry" />
        </mxCell>
        <mxCell id="6WpyNxrPEkwIV4gef8yF-33" value="" style="rounded=0;whiteSpace=wrap;html=1;" parent="1" vertex="1">
          <mxGeometry x="1530" y="5000" width="480" height="240" as="geometry" />
        </mxCell>
        <mxCell id="6WpyNxrPEkwIV4gef8yF-34" value="" style="rounded=0;whiteSpace=wrap;html=1;" parent="1" vertex="1">
          <mxGeometry x="930" y="5000" width="480" height="240" as="geometry" />
        </mxCell>
        <mxCell id="6WpyNxrPEkwIV4gef8yF-44" style="edgeStyle=orthogonalEdgeStyle;rounded=0;orthogonalLoop=1;jettySize=auto;html=1;exitX=0;exitY=0.5;exitDx=0;exitDy=0;entryX=1;entryY=0.5;entryDx=0;entryDy=0;curved=1;strokeWidth=50;strokeColor=#994C00;endArrow=classic;endFill=1;" parent="1" source="6WpyNxrPEkwIV4gef8yF-35" target="6WpyNxrPEkwIV4gef8yF-39" edge="1">
          <mxGeometry relative="1" as="geometry">
            <mxPoint x="4790" y="9270" as="targetPoint" />
            <Array as="points">
              <mxPoint x="3480" y="11180" />
              <mxPoint x="3480" y="5500" />
            </Array>
          </mxGeometry>
        </mxCell>
        <mxCell id="6WpyNxrPEkwIV4gef8yF-35" value="" style="rounded=0;whiteSpace=wrap;html=1;rotation=-50;fillColor=#FFB570;strokeColor=#d79b00;" parent="1" vertex="1">
          <mxGeometry x="6140" y="10340" width="2040" height="120" as="geometry" />
        </mxCell>
        <mxCell id="6WpyNxrPEkwIV4gef8yF-48" value="" style="rounded=1;whiteSpace=wrap;html=1;fillColor=#FFD966;strokeColor=#d79b00;arcSize=3;" parent="1" vertex="1">
          <mxGeometry x="18000" width="2000" height="1500" as="geometry" />
        </mxCell>
        <mxCell id="6WpyNxrPEkwIV4gef8yF-49" value="" style="rounded=0;whiteSpace=wrap;html=1;" parent="1" vertex="1">
          <mxGeometry x="18160" y="500" width="480" height="240" as="geometry" />
        </mxCell>
        <mxCell id="6WpyNxrPEkwIV4gef8yF-50" value="" style="rounded=0;whiteSpace=wrap;html=1;" parent="1" vertex="1">
          <mxGeometry x="18160" y="750" width="480" height="240" as="geometry" />
        </mxCell>
        <mxCell id="6WpyNxrPEkwIV4gef8yF-51" value="" style="rounded=0;whiteSpace=wrap;html=1;" parent="1" vertex="1">
          <mxGeometry x="18160" y="1000" width="480" height="240" as="geometry" />
        </mxCell>
        <mxCell id="6WpyNxrPEkwIV4gef8yF-52" value="" style="rounded=0;whiteSpace=wrap;html=1;" parent="1" vertex="1">
          <mxGeometry x="19360" y="750" width="480" height="240" as="geometry" />
        </mxCell>
        <mxCell id="6WpyNxrPEkwIV4gef8yF-53" value="" style="rounded=0;whiteSpace=wrap;html=1;" parent="1" vertex="1">
          <mxGeometry x="18160" y="250" width="480" height="240" as="geometry" />
        </mxCell>
        <mxCell id="6WpyNxrPEkwIV4gef8yF-54" value="" style="rounded=0;whiteSpace=wrap;html=1;" parent="1" vertex="1">
          <mxGeometry x="19360" y="1000" width="480" height="240" as="geometry" />
        </mxCell>
        <mxCell id="6WpyNxrPEkwIV4gef8yF-55" value="" style="rounded=0;whiteSpace=wrap;html=1;" parent="1" vertex="1">
          <mxGeometry x="18760" y="1000" width="480" height="240" as="geometry" />
        </mxCell>
        <mxCell id="6WpyNxrPEkwIV4gef8yF-56" value="" style="rounded=0;whiteSpace=wrap;html=1;" parent="1" vertex="1">
          <mxGeometry x="19360" y="500" width="480" height="240" as="geometry" />
        </mxCell>
        <mxCell id="6WpyNxrPEkwIV4gef8yF-57" value="" style="rounded=0;whiteSpace=wrap;html=1;" parent="1" vertex="1">
          <mxGeometry x="18760" y="750" width="480" height="240" as="geometry" />
        </mxCell>
        <mxCell id="6WpyNxrPEkwIV4gef8yF-58" value="" style="rounded=0;whiteSpace=wrap;html=1;" parent="1" vertex="1">
          <mxGeometry x="18760" y="500" width="480" height="240" as="geometry" />
        </mxCell>
        <mxCell id="6WpyNxrPEkwIV4gef8yF-59" value="" style="rounded=0;whiteSpace=wrap;html=1;" parent="1" vertex="1">
          <mxGeometry x="19360" y="250" width="480" height="240" as="geometry" />
        </mxCell>
        <mxCell id="6WpyNxrPEkwIV4gef8yF-60" value="" style="rounded=0;whiteSpace=wrap;html=1;" parent="1" vertex="1">
          <mxGeometry x="18760" y="250" width="480" height="240" as="geometry" />
        </mxCell>
        <mxCell id="6WpyNxrPEkwIV4gef8yF-74" value="" style="group;rotation=60;" parent="1" vertex="1" connectable="0">
          <mxGeometry x="16640" y="17900" width="2000" height="1500" as="geometry" />
        </mxCell>
        <mxCell id="6WpyNxrPEkwIV4gef8yF-61" value="" style="rounded=1;whiteSpace=wrap;html=1;fillColor=#FFD966;strokeColor=#d79b00;arcSize=3;rotation=60;" parent="6WpyNxrPEkwIV4gef8yF-74" vertex="1">
          <mxGeometry width="2000" height="1500" as="geometry" />
        </mxCell>
        <mxCell id="6WpyNxrPEkwIV4gef8yF-62" value="" style="rounded=0;whiteSpace=wrap;html=1;rotation=60;" parent="6WpyNxrPEkwIV4gef8yF-74" vertex="1">
          <mxGeometry x="573" y="45" width="480" height="240" as="geometry" />
        </mxCell>
        <mxCell id="6WpyNxrPEkwIV4gef8yF-63" value="" style="rounded=0;whiteSpace=wrap;html=1;rotation=60;" parent="6WpyNxrPEkwIV4gef8yF-74" vertex="1">
          <mxGeometry x="356" y="170" width="480" height="240" as="geometry" />
        </mxCell>
        <mxCell id="6WpyNxrPEkwIV4gef8yF-64" value="" style="rounded=0;whiteSpace=wrap;html=1;rotation=60;" parent="6WpyNxrPEkwIV4gef8yF-74" vertex="1">
          <mxGeometry x="140" y="295" width="480" height="240" as="geometry" />
        </mxCell>
        <mxCell id="6WpyNxrPEkwIV4gef8yF-65" value="" style="rounded=0;whiteSpace=wrap;html=1;rotation=60;" parent="6WpyNxrPEkwIV4gef8yF-74" vertex="1">
          <mxGeometry x="956" y="1210" width="480" height="240" as="geometry" />
        </mxCell>
        <mxCell id="6WpyNxrPEkwIV4gef8yF-66" value="" style="rounded=0;whiteSpace=wrap;html=1;rotation=60;" parent="6WpyNxrPEkwIV4gef8yF-74" vertex="1">
          <mxGeometry x="789" y="-80" width="480" height="240" as="geometry" />
        </mxCell>
        <mxCell id="6WpyNxrPEkwIV4gef8yF-67" value="" style="rounded=0;whiteSpace=wrap;html=1;rotation=60;" parent="6WpyNxrPEkwIV4gef8yF-74" vertex="1">
          <mxGeometry x="740" y="1335" width="480" height="240" as="geometry" />
        </mxCell>
        <mxCell id="6WpyNxrPEkwIV4gef8yF-68" value="" style="rounded=0;whiteSpace=wrap;html=1;rotation=60;" parent="6WpyNxrPEkwIV4gef8yF-74" vertex="1">
          <mxGeometry x="440" y="815" width="480" height="240" as="geometry" />
        </mxCell>
        <mxCell id="6WpyNxrPEkwIV4gef8yF-69" value="" style="rounded=0;whiteSpace=wrap;html=1;rotation=60;" parent="6WpyNxrPEkwIV4gef8yF-74" vertex="1">
          <mxGeometry x="1173" y="1085" width="480" height="240" as="geometry" />
        </mxCell>
        <mxCell id="6WpyNxrPEkwIV4gef8yF-70" value="" style="rounded=0;whiteSpace=wrap;html=1;rotation=60;" parent="6WpyNxrPEkwIV4gef8yF-74" vertex="1">
          <mxGeometry x="656" y="690" width="480" height="240" as="geometry" />
        </mxCell>
        <mxCell id="6WpyNxrPEkwIV4gef8yF-71" value="" style="rounded=0;whiteSpace=wrap;html=1;rotation=60;" parent="6WpyNxrPEkwIV4gef8yF-74" vertex="1">
          <mxGeometry x="873" y="565" width="480" height="240" as="geometry" />
        </mxCell>
        <mxCell id="6WpyNxrPEkwIV4gef8yF-72" value="" style="rounded=0;whiteSpace=wrap;html=1;rotation=60;" parent="6WpyNxrPEkwIV4gef8yF-74" vertex="1">
          <mxGeometry x="1389" y="960" width="480" height="240" as="geometry" />
        </mxCell>
        <mxCell id="6WpyNxrPEkwIV4gef8yF-73" value="" style="rounded=0;whiteSpace=wrap;html=1;rotation=60;" parent="6WpyNxrPEkwIV4gef8yF-74" vertex="1">
          <mxGeometry x="1089" y="440" width="480" height="240" as="geometry" />
        </mxCell>
        <mxCell id="6WpyNxrPEkwIV4gef8yF-75" value="" style="shape=loopLimit;whiteSpace=wrap;html=1;size=220;rotation=135;" parent="1" vertex="1">
          <mxGeometry x="330" y="110" width="500" height="1000" as="geometry" />
        </mxCell>
        <mxCell id="6WpyNxrPEkwIV4gef8yF-76" value="" style="shape=trapezoid;perimeter=trapezoidPerimeter;whiteSpace=wrap;html=1;fixedSize=1;size=150;rotation=15;fillColor=#60a917;fontColor=#ffffff;strokeColor=#2D7600;" parent="1" vertex="1">
          <mxGeometry x="8230" y="12590" width="1790" height="1900" as="geometry" />
        </mxCell>
        <mxCell id="6WpyNxrPEkwIV4gef8yF-77" value="" style="shape=trapezoid;perimeter=trapezoidPerimeter;whiteSpace=wrap;html=1;fixedSize=1;size=150;rotation=5;fillColor=#60a917;fontColor=#ffffff;strokeColor=#2D7600;" parent="1" vertex="1">
          <mxGeometry x="9880" y="12900" width="1790" height="1900" as="geometry" />
        </mxCell>
        <mxCell id="6WpyNxrPEkwIV4gef8yF-78" value="" style="shape=trapezoid;perimeter=trapezoidPerimeter;whiteSpace=wrap;html=1;fixedSize=1;size=100;rotation=357;fillColor=#60a917;fontColor=#ffffff;strokeColor=#2D7600;" parent="1" vertex="1">
          <mxGeometry x="11583" y="12943" width="1790" height="1900" as="geometry" />
        </mxCell>
        <mxCell id="6WpyNxrPEkwIV4gef8yF-79" value="" style="shape=trapezoid;perimeter=trapezoidPerimeter;whiteSpace=wrap;html=1;fixedSize=1;size=190;rotation=-180;fillColor=#60a917;fontColor=#ffffff;strokeColor=#2D7600;" parent="1" vertex="1">
          <mxGeometry x="13260" y="12900" width="1550" height="1900" as="geometry" />
        </mxCell>
        <mxCell id="6WpyNxrPEkwIV4gef8yF-80" value="" style="shape=trapezoid;perimeter=trapezoidPerimeter;whiteSpace=wrap;html=1;fixedSize=1;size=465.73999999999796;rotation=200;fillColor=#60a917;fontColor=#ffffff;strokeColor=#2D7600;" parent="1" vertex="1">
          <mxGeometry x="14490" y="13110" width="1570" height="1900" as="geometry" />
        </mxCell>
        <mxCell id="6WpyNxrPEkwIV4gef8yF-81" value="" style="shape=trapezoid;perimeter=trapezoidPerimeter;whiteSpace=wrap;html=1;fixedSize=1;size=880;rotation=-120;fillColor=#60a917;fontColor=#ffffff;strokeColor=#2D7600;" parent="1" vertex="1">
          <mxGeometry x="15030" y="13960" width="2390" height="1900" as="geometry" />
        </mxCell>
        <mxCell id="6WpyNxrPEkwIV4gef8yF-82" value="" style="shape=trapezoid;perimeter=trapezoidPerimeter;whiteSpace=wrap;html=1;fixedSize=1;size=280;rotation=76;fillColor=#60a917;fontColor=#ffffff;strokeColor=#2D7600;" parent="1" vertex="1">
          <mxGeometry x="15680" y="15680" width="2390" height="1900" as="geometry" />
        </mxCell>
        <mxCell id="6WpyNxrPEkwIV4gef8yF-84" style="edgeStyle=orthogonalEdgeStyle;rounded=0;orthogonalLoop=1;jettySize=auto;html=1;exitX=0.5;exitY=1;exitDx=0;exitDy=0;entryX=0;entryY=0.5;entryDx=0;entryDy=0;strokeWidth=40;strokeColor=#994C00;endArrow=none;endFill=0;curved=1;" parent="1" source="6WpyNxrPEkwIV4gef8yF-61" target="6WpyNxrPEkwIV4gef8yF-45" edge="1">
          <mxGeometry relative="1" as="geometry">
            <Array as="points">
              <mxPoint x="15550" y="19026" />
              <mxPoint x="15550" y="15000" />
              <mxPoint x="6930" y="15000" />
              <mxPoint x="6930" y="11191" />
            </Array>
          </mxGeometry>
        </mxCell>
        <mxCell id="6WpyNxrPEkwIV4gef8yF-87" value="Text" style="edgeLabel;html=1;align=center;verticalAlign=middle;resizable=0;points=[];" parent="6WpyNxrPEkwIV4gef8yF-84" vertex="1" connectable="0">
          <mxGeometry x="-0.461" y="-50" relative="1" as="geometry">
            <mxPoint x="6" as="offset" />
          </mxGeometry>
        </mxCell>
        <mxCell id="6WpyNxrPEkwIV4gef8yF-89" value="" style="ellipse;shape=cloud;whiteSpace=wrap;html=1;fillColor=#d5e8d4;strokeColor=#82b366;gradientColor=#97d077;" parent="1" vertex="1">
          <mxGeometry x="3000" y="18880" width="880" height="630" as="geometry" />
        </mxCell>
        <mxCell id="6WpyNxrPEkwIV4gef8yF-90" value="" style="ellipse;shape=cloud;whiteSpace=wrap;html=1;fillColor=#d5e8d4;strokeColor=#82b366;gradientColor=#97d077;" parent="1" vertex="1">
          <mxGeometry x="3110" y="18600" width="880" height="630" as="geometry" />
        </mxCell>
        <mxCell id="6WpyNxrPEkwIV4gef8yF-91" value="" style="ellipse;shape=cloud;whiteSpace=wrap;html=1;fillColor=#d5e8d4;strokeColor=#82b366;gradientColor=#97d077;" parent="1" vertex="1">
          <mxGeometry x="3250" y="18290" width="880" height="630" as="geometry" />
        </mxCell>
        <mxCell id="6WpyNxrPEkwIV4gef8yF-92" value="" style="ellipse;shape=cloud;whiteSpace=wrap;html=1;fillColor=#d5e8d4;strokeColor=#82b366;gradientColor=#97d077;" parent="1" vertex="1">
          <mxGeometry x="3350" y="17950" width="880" height="630" as="geometry" />
        </mxCell>
        <mxCell id="6WpyNxrPEkwIV4gef8yF-93" value="" style="ellipse;shape=cloud;whiteSpace=wrap;html=1;fillColor=#d5e8d4;strokeColor=#82b366;gradientColor=#97d077;" parent="1" vertex="1">
          <mxGeometry x="3490" y="17530" width="880" height="630" as="geometry" />
        </mxCell>
        <mxCell id="6WpyNxrPEkwIV4gef8yF-94" value="" style="ellipse;shape=cloud;whiteSpace=wrap;html=1;fillColor=#d5e8d4;strokeColor=#82b366;gradientColor=#97d077;" parent="1" vertex="1">
          <mxGeometry x="3610" y="17140" width="880" height="630" as="geometry" />
        </mxCell>
        <mxCell id="6WpyNxrPEkwIV4gef8yF-95" value="" style="ellipse;shape=cloud;whiteSpace=wrap;html=1;fillColor=#d5e8d4;strokeColor=#82b366;gradientColor=#97d077;" parent="1" vertex="1">
          <mxGeometry x="3750" y="16795" width="880" height="630" as="geometry" />
        </mxCell>
        <mxCell id="6WpyNxrPEkwIV4gef8yF-96" value="" style="ellipse;shape=cloud;whiteSpace=wrap;html=1;fillColor=#d5e8d4;strokeColor=#82b366;gradientColor=#97d077;" parent="1" vertex="1">
          <mxGeometry x="3790" y="16340" width="880" height="630" as="geometry" />
        </mxCell>
        <mxCell id="6WpyNxrPEkwIV4gef8yF-97" value="" style="ellipse;shape=cloud;whiteSpace=wrap;html=1;fillColor=#d5e8d4;strokeColor=#82b366;gradientColor=#97d077;" parent="1" vertex="1">
          <mxGeometry x="3870" y="15870" width="880" height="630" as="geometry" />
        </mxCell>
        <mxCell id="6WpyNxrPEkwIV4gef8yF-98" value="" style="ellipse;shape=cloud;whiteSpace=wrap;html=1;fillColor=#d5e8d4;strokeColor=#82b366;gradientColor=#97d077;" parent="1" vertex="1">
          <mxGeometry x="4000" y="15430" width="880" height="630" as="geometry" />
        </mxCell>
        <mxCell id="6WpyNxrPEkwIV4gef8yF-99" value="" style="ellipse;shape=cloud;whiteSpace=wrap;html=1;fillColor=#d5e8d4;strokeColor=#82b366;gradientColor=#97d077;" parent="1" vertex="1">
          <mxGeometry x="11230" y="17450" width="4220" height="2530" as="geometry" />
        </mxCell>
        <mxCell id="6WpyNxrPEkwIV4gef8yF-100" value="" style="ellipse;shape=cloud;whiteSpace=wrap;html=1;fillColor=#d5e8d4;strokeColor=#82b366;gradientColor=#97d077;" parent="1" vertex="1">
          <mxGeometry x="4280" y="15020" width="880" height="630" as="geometry" />
        </mxCell>
        <mxCell id="6WpyNxrPEkwIV4gef8yF-101" value="" style="ellipse;shape=cloud;whiteSpace=wrap;html=1;fillColor=#d5e8d4;strokeColor=#82b366;gradientColor=#97d077;" parent="1" vertex="1">
          <mxGeometry x="4780" y="14730" width="880" height="630" as="geometry" />
        </mxCell>
        <mxCell id="6WpyNxrPEkwIV4gef8yF-102" value="" style="ellipse;shape=cloud;whiteSpace=wrap;html=1;fillColor=#d5e8d4;strokeColor=#82b366;gradientColor=#97d077;" parent="1" vertex="1">
          <mxGeometry x="5410" y="14510" width="880" height="630" as="geometry" />
        </mxCell>
        <mxCell id="6WpyNxrPEkwIV4gef8yF-103" value="" style="ellipse;shape=cloud;whiteSpace=wrap;html=1;fillColor=#d5e8d4;strokeColor=#82b366;gradientColor=#97d077;" parent="1" vertex="1">
          <mxGeometry x="6080" y="14450" width="880" height="650" as="geometry" />
        </mxCell>
        <mxCell id="6WpyNxrPEkwIV4gef8yF-104" value="" style="ellipse;shape=cloud;whiteSpace=wrap;html=1;fillColor=#d5e8d4;strokeColor=#82b366;gradientColor=#97d077;" parent="1" vertex="1">
          <mxGeometry x="6740" y="14610" width="880" height="630" as="geometry" />
        </mxCell>
        <mxCell id="6WpyNxrPEkwIV4gef8yF-105" value="" style="ellipse;shape=cloud;whiteSpace=wrap;html=1;fillColor=#d5e8d4;strokeColor=#82b366;gradientColor=#97d077;" parent="1" vertex="1">
          <mxGeometry x="7240" y="14770" width="880" height="630" as="geometry" />
        </mxCell>
        <mxCell id="6WpyNxrPEkwIV4gef8yF-106" value="" style="ellipse;shape=cloud;whiteSpace=wrap;html=1;fillColor=#d5e8d4;strokeColor=#82b366;gradientColor=#97d077;" parent="1" vertex="1">
          <mxGeometry x="7730" y="14890" width="880" height="630" as="geometry" />
        </mxCell>
        <mxCell id="6WpyNxrPEkwIV4gef8yF-107" value="" style="ellipse;shape=cloud;whiteSpace=wrap;html=1;fillColor=#d5e8d4;strokeColor=#82b366;gradientColor=#97d077;" parent="1" vertex="1">
          <mxGeometry x="8300" y="14990" width="880" height="630" as="geometry" />
        </mxCell>
        <mxCell id="6WpyNxrPEkwIV4gef8yF-108" value="" style="ellipse;shape=cloud;whiteSpace=wrap;html=1;fillColor=#d5e8d4;strokeColor=#82b366;gradientColor=#97d077;" parent="1" vertex="1">
          <mxGeometry x="8870" y="15070" width="880" height="630" as="geometry" />
        </mxCell>
        <mxCell id="6WpyNxrPEkwIV4gef8yF-109" value="" style="ellipse;shape=cloud;whiteSpace=wrap;html=1;fillColor=#d5e8d4;strokeColor=#82b366;gradientColor=#97d077;" parent="1" vertex="1">
          <mxGeometry x="9310" y="15030" width="880" height="630" as="geometry" />
        </mxCell>
        <mxCell id="6WpyNxrPEkwIV4gef8yF-110" value="" style="ellipse;shape=cloud;whiteSpace=wrap;html=1;fillColor=#d5e8d4;strokeColor=#82b366;gradientColor=#97d077;" parent="1" vertex="1">
          <mxGeometry x="9920" y="15140" width="880" height="630" as="geometry" />
        </mxCell>
        <mxCell id="6WpyNxrPEkwIV4gef8yF-111" value="" style="ellipse;shape=cloud;whiteSpace=wrap;html=1;fillColor=#d5e8d4;strokeColor=#82b366;gradientColor=#97d077;" parent="1" vertex="1">
          <mxGeometry x="10470" y="15150" width="880" height="630" as="geometry" />
        </mxCell>
        <mxCell id="6WpyNxrPEkwIV4gef8yF-112" value="" style="ellipse;shape=cloud;whiteSpace=wrap;html=1;fillColor=#d5e8d4;strokeColor=#82b366;gradientColor=#97d077;" parent="1" vertex="1">
          <mxGeometry x="10910" y="15220" width="880" height="630" as="geometry" />
        </mxCell>
        <mxCell id="6WpyNxrPEkwIV4gef8yF-113" value="" style="ellipse;shape=cloud;whiteSpace=wrap;html=1;fillColor=#d5e8d4;strokeColor=#82b366;gradientColor=#97d077;" parent="1" vertex="1">
          <mxGeometry x="11370" y="15310" width="880" height="630" as="geometry" />
        </mxCell>
        <mxCell id="6WpyNxrPEkwIV4gef8yF-114" value="" style="ellipse;shape=cloud;whiteSpace=wrap;html=1;fillColor=#d5e8d4;strokeColor=#82b366;gradientColor=#97d077;" parent="1" vertex="1">
          <mxGeometry x="11860" y="15370" width="880" height="630" as="geometry" />
        </mxCell>
        <mxCell id="6WpyNxrPEkwIV4gef8yF-115" value="" style="ellipse;shape=cloud;whiteSpace=wrap;html=1;fillColor=#d5e8d4;strokeColor=#82b366;gradientColor=#97d077;" parent="1" vertex="1">
          <mxGeometry x="12380" y="15470" width="880" height="630" as="geometry" />
        </mxCell>
        <mxCell id="6WpyNxrPEkwIV4gef8yF-116" value="" style="ellipse;shape=cloud;whiteSpace=wrap;html=1;fillColor=#d5e8d4;strokeColor=#82b366;gradientColor=#97d077;" parent="1" vertex="1">
          <mxGeometry x="12900" y="15610" width="880" height="630" as="geometry" />
        </mxCell>
        <mxCell id="6WpyNxrPEkwIV4gef8yF-117" value="" style="ellipse;shape=cloud;whiteSpace=wrap;html=1;fillColor=#d5e8d4;strokeColor=#82b366;gradientColor=#97d077;" parent="1" vertex="1">
          <mxGeometry x="13410" y="15780" width="880" height="630" as="geometry" />
        </mxCell>
        <mxCell id="6WpyNxrPEkwIV4gef8yF-118" value="" style="ellipse;shape=cloud;whiteSpace=wrap;html=1;fillColor=#d5e8d4;strokeColor=#82b366;gradientColor=#97d077;" parent="1" vertex="1">
          <mxGeometry x="13690" y="16020" width="880" height="630" as="geometry" />
        </mxCell>
        <mxCell id="6WpyNxrPEkwIV4gef8yF-119" value="" style="ellipse;shape=cloud;whiteSpace=wrap;html=1;fillColor=#d5e8d4;strokeColor=#82b366;gradientColor=#97d077;" parent="1" vertex="1">
          <mxGeometry x="13910" y="16230" width="880" height="630" as="geometry" />
        </mxCell>
        <mxCell id="6WpyNxrPEkwIV4gef8yF-120" value="" style="ellipse;shape=cloud;whiteSpace=wrap;html=1;fillColor=#d5e8d4;strokeColor=#82b366;gradientColor=#97d077;" parent="1" vertex="1">
          <mxGeometry x="14100" y="16550" width="880" height="630" as="geometry" />
        </mxCell>
        <mxCell id="6WpyNxrPEkwIV4gef8yF-121" value="" style="ellipse;shape=cloud;whiteSpace=wrap;html=1;fillColor=#d5e8d4;strokeColor=#82b366;gradientColor=#97d077;" parent="1" vertex="1">
          <mxGeometry x="14200" y="16890" width="880" height="630" as="geometry" />
        </mxCell>
        <mxCell id="6WpyNxrPEkwIV4gef8yF-122" value="" style="ellipse;shape=cloud;whiteSpace=wrap;html=1;fillColor=#d5e8d4;strokeColor=#82b366;gradientColor=#97d077;" parent="1" vertex="1">
          <mxGeometry x="14260" y="17270" width="880" height="630" as="geometry" />
        </mxCell>
        <mxCell id="6WpyNxrPEkwIV4gef8yF-123" value="" style="ellipse;shape=cloud;whiteSpace=wrap;html=1;fillColor=#d5e8d4;strokeColor=#82b366;gradientColor=#97d077;" parent="1" vertex="1">
          <mxGeometry x="14400" y="17600" width="880" height="630" as="geometry" />
        </mxCell>
        <mxCell id="6WpyNxrPEkwIV4gef8yF-124" value="" style="ellipse;shape=cloud;whiteSpace=wrap;html=1;fillColor=#d5e8d4;strokeColor=#82b366;gradientColor=#97d077;" parent="1" vertex="1">
          <mxGeometry x="14490" y="17960" width="880" height="630" as="geometry" />
        </mxCell>
        <mxCell id="6WpyNxrPEkwIV4gef8yF-125" value="" style="ellipse;shape=cloud;whiteSpace=wrap;html=1;fillColor=#d5e8d4;strokeColor=#82b366;gradientColor=#97d077;" parent="1" vertex="1">
          <mxGeometry x="14660" y="18230" width="880" height="630" as="geometry" />
        </mxCell>
        <mxCell id="6WpyNxrPEkwIV4gef8yF-126" value="" style="ellipse;shape=cloud;whiteSpace=wrap;html=1;fillColor=#d5e8d4;strokeColor=#82b366;gradientColor=#97d077;" parent="1" vertex="1">
          <mxGeometry x="14920" y="18540" width="880" height="630" as="geometry" />
        </mxCell>
        <mxCell id="6WpyNxrPEkwIV4gef8yF-127" value="" style="ellipse;shape=cloud;whiteSpace=wrap;html=1;fillColor=#d5e8d4;strokeColor=#82b366;gradientColor=#97d077;" parent="1" vertex="1">
          <mxGeometry x="15140" y="18760" width="880" height="630" as="geometry" />
        </mxCell>
        <mxCell id="6WpyNxrPEkwIV4gef8yF-128" value="" style="ellipse;shape=cloud;whiteSpace=wrap;html=1;fillColor=#d5e8d4;strokeColor=#82b366;gradientColor=#97d077;" parent="1" vertex="1">
          <mxGeometry x="15460" y="19010" width="880" height="630" as="geometry" />
        </mxCell>
        <mxCell id="6WpyNxrPEkwIV4gef8yF-129" value="" style="ellipse;shape=cloud;whiteSpace=wrap;html=1;fillColor=#d5e8d4;strokeColor=#82b366;gradientColor=#97d077;" parent="1" vertex="1">
          <mxGeometry x="15870" y="19200" width="880" height="630" as="geometry" />
        </mxCell>
        <mxCell id="6WpyNxrPEkwIV4gef8yF-132" value="" style="ellipse;shape=cloud;whiteSpace=wrap;html=1;fillColor=#d5e8d4;strokeColor=#82b366;gradientColor=#97d077;" parent="1" vertex="1">
          <mxGeometry x="10500" y="15800" width="4220" height="2530" as="geometry" />
        </mxCell>
        <mxCell id="6WpyNxrPEkwIV4gef8yF-133" value="" style="ellipse;shape=cloud;whiteSpace=wrap;html=1;fillColor=#d5e8d4;strokeColor=#82b366;gradientColor=#97d077;" parent="1" vertex="1">
          <mxGeometry x="7780" y="15250" width="4220" height="2530" as="geometry" />
        </mxCell>
        <mxCell id="6WpyNxrPEkwIV4gef8yF-134" value="" style="ellipse;shape=cloud;whiteSpace=wrap;html=1;fillColor=#d5e8d4;strokeColor=#82b366;gradientColor=#97d077;" parent="1" vertex="1">
          <mxGeometry x="4510" y="14700" width="4220" height="2530" as="geometry" />
        </mxCell>
        <mxCell id="6WpyNxrPEkwIV4gef8yF-135" value="" style="ellipse;shape=cloud;whiteSpace=wrap;html=1;fillColor=#d5e8d4;strokeColor=#82b366;gradientColor=#97d077;" parent="1" vertex="1">
          <mxGeometry x="2990" y="18870" width="880" height="630" as="geometry" />
        </mxCell>
        <mxCell id="6WpyNxrPEkwIV4gef8yF-136" value="" style="ellipse;shape=cloud;whiteSpace=wrap;html=1;fillColor=#d5e8d4;strokeColor=#82b366;gradientColor=#97d077;" parent="1" vertex="1">
          <mxGeometry x="2960" y="19110" width="880" height="630" as="geometry" />
        </mxCell>
        <mxCell id="6WpyNxrPEkwIV4gef8yF-137" value="" style="ellipse;shape=cloud;whiteSpace=wrap;html=1;fillColor=#d5e8d4;strokeColor=#82b366;gradientColor=#97d077;" parent="1" vertex="1">
          <mxGeometry x="2980" y="19380" width="880" height="610" as="geometry" />
        </mxCell>
        <mxCell id="6WpyNxrPEkwIV4gef8yF-138" value="" style="ellipse;shape=cloud;whiteSpace=wrap;html=1;fillColor=#d5e8d4;strokeColor=#82b366;gradientColor=#97d077;" parent="1" vertex="1">
          <mxGeometry x="3980" y="16290" width="4220" height="2530" as="geometry" />
        </mxCell>
        <mxCell id="6WpyNxrPEkwIV4gef8yF-139" value="" style="ellipse;shape=cloud;whiteSpace=wrap;html=1;fillColor=#d5e8d4;strokeColor=#82b366;gradientColor=#97d077;" parent="1" vertex="1">
          <mxGeometry x="6590" y="16360" width="4220" height="2530" as="geometry" />
        </mxCell>
        <mxCell id="6WpyNxrPEkwIV4gef8yF-140" value="" style="ellipse;shape=cloud;whiteSpace=wrap;html=1;fillColor=#d5e8d4;strokeColor=#82b366;gradientColor=#97d077;" parent="1" vertex="1">
          <mxGeometry x="3560" y="17480" width="4220" height="2520" as="geometry" />
        </mxCell>
        <mxCell id="6WpyNxrPEkwIV4gef8yF-141" value="" style="ellipse;shape=cloud;whiteSpace=wrap;html=1;fillColor=#d5e8d4;strokeColor=#82b366;gradientColor=#97d077;" parent="1" vertex="1">
          <mxGeometry x="6600" y="17520" width="4220" height="2480" as="geometry" />
        </mxCell>
        <mxCell id="6WpyNxrPEkwIV4gef8yF-142" value="" style="ellipse;shape=cloud;whiteSpace=wrap;html=1;fillColor=#d5e8d4;strokeColor=#82b366;gradientColor=#97d077;" parent="1" vertex="1">
          <mxGeometry x="8930" y="17310" width="4220" height="2530" as="geometry" />
        </mxCell>
        <mxCell id="6WpyNxrPEkwIV4gef8yF-143" value="" style="shape=or;whiteSpace=wrap;html=1;fillColor=#1ba1e2;strokeColor=#006EAF;fontColor=#ffffff;rotation=-180;" parent="1" vertex="1">
          <mxGeometry x="17000" y="5220" width="3000" height="3000" as="geometry" />
        </mxCell>
        <mxCell id="6WpyNxrPEkwIV4gef8yF-144" value="" style="shape=loopLimit;whiteSpace=wrap;html=1;size=220;rotation=-35;" parent="1" vertex="1">
          <mxGeometry x="19140" y="12530" width="500" height="1000" as="geometry" />
        </mxCell>
        <mxCell id="6WpyNxrPEkwIV4gef8yF-145" value="" style="triangle;whiteSpace=wrap;html=1;rotation=-90;fillColor=#f5f5f5;gradientColor=#b3b3b3;strokeColor=#666666;gradientDirection=west;" parent="1" vertex="1">
          <mxGeometry x="15460" y="3680" width="1620" height="1570" as="geometry" />
        </mxCell>
        <mxCell id="6WpyNxrPEkwIV4gef8yF-146" value="" style="triangle;whiteSpace=wrap;html=1;rotation=-90;fillColor=#f5f5f5;gradientColor=#b3b3b3;strokeColor=#666666;gradientDirection=west;" parent="1" vertex="1">
          <mxGeometry x="15110" y="4680" width="1620" height="1570" as="geometry" />
        </mxCell>
        <mxCell id="6WpyNxrPEkwIV4gef8yF-147" value="" style="triangle;whiteSpace=wrap;html=1;rotation=-90;fillColor=#f5f5f5;gradientColor=#b3b3b3;strokeColor=#666666;gradientDirection=west;" parent="1" vertex="1">
          <mxGeometry x="15415" y="5990" width="1620" height="1570" as="geometry" />
        </mxCell>
        <mxCell id="6WpyNxrPEkwIV4gef8yF-148" value="" style="triangle;whiteSpace=wrap;html=1;rotation=-90;fillColor=#f5f5f5;gradientColor=#b3b3b3;strokeColor=#666666;gradientDirection=west;" parent="1" vertex="1">
          <mxGeometry x="15710" y="7290" width="1620" height="1570" as="geometry" />
        </mxCell>
        <mxCell id="6WpyNxrPEkwIV4gef8yF-149" value="" style="triangle;whiteSpace=wrap;html=1;rotation=-90;fillColor=#f5f5f5;gradientColor=#b3b3b3;strokeColor=#666666;gradientDirection=west;" parent="1" vertex="1">
          <mxGeometry x="16550" y="8390" width="1620" height="1570" as="geometry" />
        </mxCell>
        <mxCell id="6WpyNxrPEkwIV4gef8yF-150" value="" style="triangle;whiteSpace=wrap;html=1;rotation=-90;fillColor=#f5f5f5;gradientColor=#b3b3b3;strokeColor=#666666;gradientDirection=west;" parent="1" vertex="1">
          <mxGeometry x="17170" y="9090" width="1620" height="1570" as="geometry" />
        </mxCell>
        <mxCell id="6WpyNxrPEkwIV4gef8yF-151" value="" style="triangle;whiteSpace=wrap;html=1;rotation=-90;fillColor=#f5f5f5;gradientColor=#b3b3b3;strokeColor=#666666;gradientDirection=west;" parent="1" vertex="1">
          <mxGeometry x="17770" y="9920" width="1620" height="1570" as="geometry" />
        </mxCell>
        <mxCell id="6WpyNxrPEkwIV4gef8yF-152" value="" style="triangle;whiteSpace=wrap;html=1;rotation=-90;fillColor=#f5f5f5;gradientColor=#b3b3b3;strokeColor=#666666;gradientDirection=west;" parent="1" vertex="1">
          <mxGeometry x="18300" y="10270" width="1620" height="1570" as="geometry" />
        </mxCell>
        <mxCell id="6WpyNxrPEkwIV4gef8yF-153" value="" style="triangle;whiteSpace=wrap;html=1;rotation=-90;fillColor=#f5f5f5;gradientColor=#b3b3b3;strokeColor=#666666;gradientDirection=west;" parent="1" vertex="1">
          <mxGeometry x="15710" y="2750" width="1620" height="1570" as="geometry" />
        </mxCell>
        <mxCell id="6WpyNxrPEkwIV4gef8yF-154" value="" style="triangle;whiteSpace=wrap;html=1;rotation=-90;fillColor=#f5f5f5;gradientColor=#b3b3b3;strokeColor=#666666;gradientDirection=west;" parent="1" vertex="1">
          <mxGeometry x="15270" y="40" width="1620" height="1570" as="geometry" />
        </mxCell>
        <mxCell id="6WpyNxrPEkwIV4gef8yF-155" value="" style="triangle;whiteSpace=wrap;html=1;rotation=-90;fillColor=#f5f5f5;gradientColor=#b3b3b3;strokeColor=#666666;gradientDirection=west;" parent="1" vertex="1">
          <mxGeometry x="15970" y="2000" width="1460" height="1570" as="geometry" />
        </mxCell>
        <mxCell id="6WpyNxrPEkwIV4gef8yF-156" value="" style="triangle;whiteSpace=wrap;html=1;rotation=-90;fillColor=#f5f5f5;gradientColor=#b3b3b3;strokeColor=#666666;gradientDirection=west;" parent="1" vertex="1">
          <mxGeometry x="15930" y="850" width="1620" height="1570" as="geometry" />
        </mxCell>
        <mxCell id="6WpyNxrPEkwIV4gef8yF-158" value="" style="verticalLabelPosition=bottom;verticalAlign=top;html=1;shape=mxgraph.basic.8_point_star;fillColor=#FF9191;" parent="1" vertex="1">
          <mxGeometry x="2850" y="4440" width="600" height="600" as="geometry" />
        </mxCell>
        <mxCell id="6WpyNxrPEkwIV4gef8yF-159" value="" style="verticalLabelPosition=bottom;verticalAlign=top;html=1;shape=mxgraph.basic.8_point_star;fillColor=#FF9191;" parent="1" vertex="1">
          <mxGeometry x="8020" y="410" width="600" height="600" as="geometry" />
        </mxCell>
        <mxCell id="6WpyNxrPEkwIV4gef8yF-160" value="" style="verticalLabelPosition=bottom;verticalAlign=top;html=1;shape=mxgraph.basic.8_point_star;fillColor=#FF9191;" parent="1" vertex="1">
          <mxGeometry x="13420" y="650" width="600" height="600" as="geometry" />
        </mxCell>
        <mxCell id="6WpyNxrPEkwIV4gef8yF-161" value="" style="verticalLabelPosition=bottom;verticalAlign=top;html=1;shape=mxgraph.basic.8_point_star;fillColor=#FF9191;" parent="1" vertex="1">
          <mxGeometry x="1550" y="12630" width="600" height="600" as="geometry" />
        </mxCell>
        <mxCell id="6WpyNxrPEkwIV4gef8yF-162" value="" style="group" parent="1" vertex="1" connectable="0">
          <mxGeometry x="10" y="1480" width="19980" height="18420" as="geometry" />
        </mxCell>
        <mxCell id="6WpyNxrPEkwIV4gef8yF-16" value="" style="curved=1;endArrow=none;html=1;rounded=1;strokeWidth=20;fillColor=#1ba1e2;strokeColor=#006EAF;flowAnimation=0;endFill=0;" parent="6WpyNxrPEkwIV4gef8yF-162" edge="1">
          <mxGeometry width="50" height="50" relative="1" as="geometry">
            <mxPoint x="10" y="3230" as="sourcePoint" />
            <mxPoint x="19980" y="18420" as="targetPoint" />
            <Array as="points">
              <mxPoint x="1720" y="2020" />
              <mxPoint x="3920" y="2680" />
              <mxPoint x="4740" y="3910" />
              <mxPoint x="5250" y="4930" />
              <mxPoint x="5350" y="6820" />
              <mxPoint x="6010" y="8660" />
              <mxPoint x="7320" y="10060" />
              <mxPoint x="8570" y="10870" />
              <mxPoint x="10130" y="11300" />
              <mxPoint x="11560" y="11420" />
              <mxPoint x="13950" y="11130" />
              <mxPoint x="14820" y="11130" />
              <mxPoint x="16430" y="11540" />
              <mxPoint x="17410" y="12390" />
              <mxPoint x="18020" y="13930" />
              <mxPoint x="18390" y="15990" />
              <mxPoint x="18510" y="16470" />
              <mxPoint x="18980" y="17350" />
            </Array>
          </mxGeometry>
        </mxCell>
        <mxCell id="6WpyNxrPEkwIV4gef8yF-18" value="" style="curved=1;endArrow=none;html=1;rounded=1;strokeWidth=20;fillColor=#1ba1e2;strokeColor=#006EAF;flowAnimation=0;endFill=0;" parent="6WpyNxrPEkwIV4gef8yF-162" edge="1">
          <mxGeometry width="50" height="50" relative="1" as="geometry">
            <mxPoint y="1210" as="sourcePoint" />
            <mxPoint x="19980" y="14000" as="targetPoint" />
            <Array as="points">
              <mxPoint x="2460" />
              <mxPoint x="6500" y="2440" />
              <mxPoint x="6810" y="7030" />
              <mxPoint x="8070" y="8970" />
              <mxPoint x="11240" y="9790" />
              <mxPoint x="15140" y="8640" />
              <mxPoint x="19220" y="11320" />
            </Array>
          </mxGeometry>
        </mxCell>
        <mxCell id="6WpyNxrPEkwIV4gef8yF-19" value="" style="endArrow=none;html=1;rounded=0;fillColor=#1ba1e2;strokeColor=#006EAF;strokeWidth=20;" parent="6WpyNxrPEkwIV4gef8yF-162" edge="1">
          <mxGeometry width="50" height="50" relative="1" as="geometry">
            <mxPoint x="19980" y="18420" as="sourcePoint" />
            <mxPoint x="19980" y="14000" as="targetPoint" />
          </mxGeometry>
        </mxCell>
        <mxCell id="6WpyNxrPEkwIV4gef8yF-20" value="" style="endArrow=none;html=1;rounded=0;fillColor=#1ba1e2;strokeColor=#006EAF;strokeWidth=20;" parent="6WpyNxrPEkwIV4gef8yF-162" edge="1">
          <mxGeometry width="50" height="50" relative="1" as="geometry">
            <mxPoint y="3230" as="sourcePoint" />
            <mxPoint y="1210" as="targetPoint" />
          </mxGeometry>
        </mxCell>
        <mxCell id="6WpyNxrPEkwIV4gef8yF-163" value="" style="shape=switch;whiteSpace=wrap;html=1;" parent="6WpyNxrPEkwIV4gef8yF-162" vertex="1">
          <mxGeometry x="1280" y="16120" width="300" height="300" as="geometry" />
        </mxCell>
        <mxCell id="6WpyNxrPEkwIV4gef8yF-47" value="" style="rounded=0;whiteSpace=wrap;html=1;rotation=-60;fillColor=#FFB570;strokeColor=#d79b00;" parent="1" vertex="1">
          <mxGeometry x="15155" y="11963.3" width="2140" height="120" as="geometry" />
        </mxCell>
        <mxCell id="6WpyNxrPEkwIV4gef8yF-45" value="" style="rounded=0;whiteSpace=wrap;html=1;rotation=-50;fillColor=#FFB570;strokeColor=#d79b00;" parent="1" vertex="1">
          <mxGeometry x="6150" y="10350" width="2040" height="120" as="geometry" />
        </mxCell>
        <mxCell id="6WpyNxrPEkwIV4gef8yF-46" value="" style="rounded=0;whiteSpace=wrap;html=1;rotation=-50;fillColor=#FFB570;strokeColor=#d79b00;" parent="1" vertex="1">
          <mxGeometry x="4020" y="4230" width="2040" height="120" as="geometry" />
        </mxCell>
      </root>
    </mxGraphModel>
  </diagram>
</mxfile>
